<svg width="35" height="36" viewBox="0 0 35 36" fill="none" xmlns="http://www.w3.org/2000/svg">
<path d="M13.0249 30.7621C5.14157 33.3288 5.14157 26.1788 2.0249 25.2621L13.0249 30.7621ZM24.0249 34.4288V28.0121C24.0249 26.1788 24.2082 25.4455 23.1082 24.3455C28.2416 23.7955 33.1916 21.7788 33.1916 13.3455C33.1893 11.1546 32.3346 9.05052 30.8082 7.47879C31.5241 5.57573 31.4582 3.46677 30.6249 1.61212C30.6249 1.61212 28.6082 1.06212 24.2082 3.99546C20.4815 3.02487 16.5683 3.02487 12.8416 3.99546C8.44157 1.06212 6.4249 1.61212 6.4249 1.61212C5.59162 3.46677 5.52571 5.57573 6.24157 7.47879C4.71523 9.05052 3.86047 11.1546 3.85824 13.3455C3.85824 21.7788 8.80824 23.7955 13.9416 24.3455C12.8416 25.4455 12.8416 26.5455 13.0249 28.0121V34.4288" fill="#0F172A"/>
<path d="M24.0249 34.4288V28.0121C24.0249 26.1788 24.2082 25.4455 23.1082 24.3455C28.2416 23.7955 33.1916 21.7788 33.1916 13.3455C33.1893 11.1546 32.3346 9.05052 30.8082 7.47879C31.5241 5.57573 31.4582 3.46677 30.6249 1.61212C30.6249 1.61212 28.6082 1.06212 24.2082 3.99546C20.4815 3.02487 16.5683 3.02487 12.8416 3.99546C8.44157 1.06212 6.4249 1.61212 6.4249 1.61212C5.59162 3.46677 5.52571 5.57573 6.24157 7.47879C4.71523 9.05052 3.86047 11.1546 3.85824 13.3455C3.85824 21.7788 8.80824 23.7955 13.9416 24.3455C12.8416 25.4455 12.8416 26.5455 13.0249 28.0121V34.4288M13.0249 30.7621C5.14157 33.3288 5.14157 26.1788 2.0249 25.2621L13.0249 30.7621Z" stroke="#CBD5E1" stroke-width="2.75" stroke-linecap="round" stroke-linejoin="round"/>
</svg>
