<svg width="45" height="44" viewBox="0 0 45 44" fill="none" xmlns="http://www.w3.org/2000/svg">
<g clip-path="url(#clip0_3308_692)">
<path d="M33.1916 7.33333H11.1916C9.16652 7.33333 7.5249 8.97495 7.5249 11V33C7.5249 35.025 9.16652 36.6667 11.1916 36.6667H33.1916C35.2166 36.6667 36.8582 35.025 36.8582 33V11C36.8582 8.97495 35.2166 7.33333 33.1916 7.33333Z" fill="#0F172A" stroke="#CBD5E1" stroke-width="2.75" stroke-linecap="round" stroke-linejoin="round"/>
<path d="M14.8583 20.1667V29.3333" stroke="#CBD5E1" stroke-width="2.75" stroke-linecap="round" stroke-linejoin="round"/>
<path d="M14.8583 14.6667V14.685" stroke="#CBD5E1" stroke-width="2.75" stroke-linecap="round" stroke-linejoin="round"/>
<path d="M22.1916 29.3333V20.1667" stroke="#CBD5E1" stroke-width="2.75" stroke-linecap="round" stroke-linejoin="round"/>
<path d="M29.5249 29.3333V23.8333C29.5249 22.8609 29.1386 21.9282 28.451 21.2406C27.7633 20.553 26.8307 20.1667 25.8583 20.1667C24.8858 20.1667 23.9532 20.553 23.2655 21.2406C22.5779 21.9282 22.1916 22.8609 22.1916 23.8333" stroke="#CBD5E1" stroke-width="2.75" stroke-linecap="round" stroke-linejoin="round"/>
</g>
<defs>
<clipPath id="clip0_3308_692">
<rect width="44" height="44" fill="white" transform="translate(0.191589)"/>
</clipPath>
</defs>
</svg>
