<svg width="40" height="33" viewBox="0 0 40 33" fill="none" xmlns="http://www.w3.org/2000/svg">
<path d="M38.5249 2.35167C36.6916 3.25 34.8949 3.61483 33.0249 4.16667C30.9698 1.8475 27.9228 1.71917 24.9949 2.8155C22.0671 3.91183 20.1494 6.59217 20.1916 9.66667V11.5C14.2424 11.6522 8.94411 8.9425 5.52494 4.16667C5.52494 4.16667 -2.14206 17.7938 12.8583 24.3333C9.42628 26.6195 6.00344 28.1613 1.85828 28C7.92294 31.3055 14.5321 32.4422 20.2539 30.7812C26.8173 28.8745 32.2109 23.9557 34.2808 16.5875C34.8982 14.3466 35.2048 12.0314 35.1919 9.707C35.1883 9.2505 37.9603 4.625 38.5249 2.34983V2.35167Z" fill="#0F172A" stroke="#CBD5E1" stroke-width="2.75" stroke-linecap="round" stroke-linejoin="round"/>
</svg>
